<mxfile host="app.diagrams.net" agent="Mozilla/5.0 (Windows NT 10.0; Win64; x64; rv:132.0) Gecko/20100101 Firefox/132.0" version="24.8.8">
  <diagram name="Strona-1" id="sDxE7bltGvyI7DCl3u-q">
    <mxGraphModel dx="1434" dy="1943" grid="1" gridSize="10" guides="1" tooltips="1" connect="1" arrows="1" fold="1" page="1" pageScale="1" pageWidth="827" pageHeight="1169" math="0" shadow="0">
      <root>
        <mxCell id="0" />
        <mxCell id="1" parent="0" />
        <mxCell id="drjl-PXOP9TSBd1cPYvW-1" value="" style="whiteSpace=wrap;html=1;aspect=fixed;" vertex="1" parent="1">
          <mxGeometry x="110" y="50" width="590" height="590" as="geometry" />
        </mxCell>
        <mxCell id="drjl-PXOP9TSBd1cPYvW-2" value="E-szkoła" style="rounded=1;whiteSpace=wrap;html=1;" vertex="1" parent="1">
          <mxGeometry x="110" y="50" width="100" height="30" as="geometry" />
        </mxCell>
        <mxCell id="drjl-PXOP9TSBd1cPYvW-3" value="Uczeń" style="shape=umlActor;verticalLabelPosition=bottom;verticalAlign=top;html=1;outlineConnect=0;" vertex="1" parent="1">
          <mxGeometry x="40" y="260" width="30" height="60" as="geometry" />
        </mxCell>
        <mxCell id="drjl-PXOP9TSBd1cPYvW-4" value="Rodzic" style="shape=umlActor;verticalLabelPosition=bottom;verticalAlign=top;html=1;outlineConnect=0;" vertex="1" parent="1">
          <mxGeometry x="40" y="400" width="30" height="60" as="geometry" />
        </mxCell>
        <mxCell id="drjl-PXOP9TSBd1cPYvW-8" value="Sekretariat" style="shape=umlActor;verticalLabelPosition=bottom;verticalAlign=top;html=1;outlineConnect=0;" vertex="1" parent="1">
          <mxGeometry x="390" y="-40" width="30" height="60" as="geometry" />
        </mxCell>
        <mxCell id="drjl-PXOP9TSBd1cPYvW-9" value="Nauczyciel" style="shape=umlActor;verticalLabelPosition=bottom;verticalAlign=top;html=1;outlineConnect=0;" vertex="1" parent="1">
          <mxGeometry x="750" y="270" width="30" height="60" as="geometry" />
        </mxCell>
        <mxCell id="drjl-PXOP9TSBd1cPYvW-18" style="edgeStyle=orthogonalEdgeStyle;rounded=0;orthogonalLoop=1;jettySize=auto;html=1;" edge="1" parent="1" source="drjl-PXOP9TSBd1cPYvW-10" target="drjl-PXOP9TSBd1cPYvW-8">
          <mxGeometry relative="1" as="geometry" />
        </mxCell>
        <mxCell id="drjl-PXOP9TSBd1cPYvW-10" value="Zmień plan lekcji" style="ellipse;whiteSpace=wrap;html=1;" vertex="1" parent="1">
          <mxGeometry x="340" y="90" width="110" height="40" as="geometry" />
        </mxCell>
        <mxCell id="drjl-PXOP9TSBd1cPYvW-19" style="edgeStyle=orthogonalEdgeStyle;rounded=0;orthogonalLoop=1;jettySize=auto;html=1;" edge="1" parent="1" source="drjl-PXOP9TSBd1cPYvW-11" target="drjl-PXOP9TSBd1cPYvW-3">
          <mxGeometry relative="1" as="geometry" />
        </mxCell>
        <mxCell id="drjl-PXOP9TSBd1cPYvW-11" value="Sprawdź plan lekcji" style="ellipse;whiteSpace=wrap;html=1;" vertex="1" parent="1">
          <mxGeometry x="200" y="160" width="110" height="40" as="geometry" />
        </mxCell>
        <mxCell id="drjl-PXOP9TSBd1cPYvW-21" style="edgeStyle=orthogonalEdgeStyle;rounded=0;orthogonalLoop=1;jettySize=auto;html=1;" edge="1" parent="1" source="drjl-PXOP9TSBd1cPYvW-12" target="drjl-PXOP9TSBd1cPYvW-3">
          <mxGeometry relative="1" as="geometry" />
        </mxCell>
        <mxCell id="drjl-PXOP9TSBd1cPYvW-12" value="Sprawdź oceny" style="ellipse;whiteSpace=wrap;html=1;" vertex="1" parent="1">
          <mxGeometry x="190" y="280" width="110" height="40" as="geometry" />
        </mxCell>
        <mxCell id="drjl-PXOP9TSBd1cPYvW-23" style="edgeStyle=orthogonalEdgeStyle;rounded=0;orthogonalLoop=1;jettySize=auto;html=1;" edge="1" parent="1" source="drjl-PXOP9TSBd1cPYvW-13" target="drjl-PXOP9TSBd1cPYvW-4">
          <mxGeometry relative="1" as="geometry" />
        </mxCell>
        <mxCell id="drjl-PXOP9TSBd1cPYvW-13" value="dodaj usprawiedliwienie" style="ellipse;whiteSpace=wrap;html=1;" vertex="1" parent="1">
          <mxGeometry x="200" y="400" width="110" height="40" as="geometry" />
        </mxCell>
        <mxCell id="drjl-PXOP9TSBd1cPYvW-17" style="edgeStyle=orthogonalEdgeStyle;rounded=0;orthogonalLoop=1;jettySize=auto;html=1;" edge="1" parent="1" source="drjl-PXOP9TSBd1cPYvW-14" target="drjl-PXOP9TSBd1cPYvW-9">
          <mxGeometry relative="1" as="geometry" />
        </mxCell>
        <mxCell id="drjl-PXOP9TSBd1cPYvW-22" style="edgeStyle=orthogonalEdgeStyle;rounded=0;orthogonalLoop=1;jettySize=auto;html=1;" edge="1" parent="1" source="drjl-PXOP9TSBd1cPYvW-14" target="drjl-PXOP9TSBd1cPYvW-12">
          <mxGeometry relative="1" as="geometry" />
        </mxCell>
        <mxCell id="drjl-PXOP9TSBd1cPYvW-14" value="wpisz ocene" style="ellipse;whiteSpace=wrap;html=1;" vertex="1" parent="1">
          <mxGeometry x="430" y="200" width="110" height="40" as="geometry" />
        </mxCell>
        <mxCell id="drjl-PXOP9TSBd1cPYvW-20" style="edgeStyle=orthogonalEdgeStyle;rounded=0;orthogonalLoop=1;jettySize=auto;html=1;entryX=0.573;entryY=-0.05;entryDx=0;entryDy=0;entryPerimeter=0;" edge="1" parent="1" source="drjl-PXOP9TSBd1cPYvW-10" target="drjl-PXOP9TSBd1cPYvW-11">
          <mxGeometry relative="1" as="geometry" />
        </mxCell>
        <mxCell id="drjl-PXOP9TSBd1cPYvW-25" style="edgeStyle=orthogonalEdgeStyle;rounded=0;orthogonalLoop=1;jettySize=auto;html=1;" edge="1" parent="1" source="drjl-PXOP9TSBd1cPYvW-24" target="drjl-PXOP9TSBd1cPYvW-9">
          <mxGeometry relative="1" as="geometry" />
        </mxCell>
        <mxCell id="drjl-PXOP9TSBd1cPYvW-24" value="wpisz nieobecność" style="ellipse;whiteSpace=wrap;html=1;" vertex="1" parent="1">
          <mxGeometry x="460" y="380" width="110" height="40" as="geometry" />
        </mxCell>
      </root>
    </mxGraphModel>
  </diagram>
</mxfile>
